<?xml version="1.0" encoding="UTF-8" standalone="no"?>
<svg id="Layer_1" data-name="Layer 1" viewBox="0 0 268.49 240.83" version="1.1" sodipodi:docname="chandler-chilvers.svg"
   inkscape:version="1.2.2 (732a01da63, 2022-12-09)" xmlns:inkscape="http://www.inkscape.org/namespaces/inkscape"
   xmlns:sodipodi="http://sodipodi.sourceforge.net/DTD/sodipodi-0.dtd" xmlns="http://www.w3.org/2000/svg"
   xmlns:svg="http://www.w3.org/2000/svg">
   <sodipodi:namedview id="namedview13" pagecolor="#ffffff" bordercolor="#000000" borderopacity="0.25"
      inkscape:showpageshadow="2" inkscape:pageopacity="0.0" inkscape:pagecheckerboard="0" inkscape:deskcolor="#d1d1d1"
      showgrid="false" inkscape:zoom="4.1606112" inkscape:cx="132.79299" inkscape:cy="74.027585"
      inkscape:window-width="3440" inkscape:window-height="1369" inkscape:window-x="1912" inkscape:window-y="-8"
      inkscape:window-maximized="1" inkscape:current-layer="Layer_1" />
   <defs id="defs4">
      <style id="style2">
         .cls-1 {
            fill: #231f20;
            stroke-width: 0px;
         }
      </style>
   </defs>
   <path class="cls-1" d="M62,111.83s-16.34,46.57-16,47c12,15,26,12,26,12l19-59h-29Z" id="path6"
      style="fill:#ffffff;fill-opacity:1" />
   <path class="cls-1"
      d="M265.17,201.29c-16.15-5.77-31.2-8.92-41.35-10.58.11-1.26.18-2.55.18-3.87v-1.85c7.98-.71,20.86-1.11,36.84.97,2.73.35,5.25-1.57,5.6-4.31.36-2.74-1.57-5.25-4.31-5.6-11.22-1.46-21.04-1.76-28.88-1.57,5.97-6.24,10.82-14.31,14.35-24.07,1.82-5.04,3.12-10.07,4.05-14.69.44.07.89.11,1.35.11h6c4.95,0,9-4.05,9-9v-9c0-4.95-4.05-9-9-9h-5.85c-2.18-7.61-8.51-14.26-18.5-14.93,5.31-11.74,12.79-39.03,9.7-86.71-.3-4.64-4.68-7.99-9.22-6.95-34.48,7.88-59.66,28.8-67.98,37.99-9.45-2.7-20.41-4.27-33.15-4.4-12.74.13-23.7,1.7-33.15,4.4C92.5,29.01,67.17,7.97,32.49.15c-4.58-1.03-8.6,3.26-8.89,7.95-2.94,47.12,4.48,74.14,9.75,85.8-9.99.67-16.32,7.32-18.5,14.93h-5.85C4.05,108.83,0,112.88,0,117.83v9c0,4.95,4.05,9,9,9h6c.46,0,.91-.05,1.35-.11.93,4.62,2.23,9.64,4.05,14.69,3.49,9.66,8.28,17.67,14.18,23.89-7.73-.16-17.32.16-28.23,1.58-2.74.36-4.67,2.87-4.31,5.6.36,2.74,2.87,4.67,5.6,4.31,15.66-2.04,28.34-1.69,36.35-1.01v2.05c0,1.3.07,2.55.17,3.79-10.14,1.68-24.96,4.83-40.85,10.5-2.6.93-3.96,3.79-3.03,6.39.73,2.04,2.65,3.32,4.71,3.32.56,0,1.13-.09,1.68-.29,15.28-5.46,29.75-8.49,39.48-10.09.77,2.28,1.74,4.43,2.88,6.46-8.13,2.65-19.3,7.59-32.85,16.78-2.28,1.55-2.88,4.66-1.33,6.95.97,1.42,2.54,2.19,4.14,2.19.97,0,1.94-.28,2.8-.86,14.79-10.03,26.33-14.52,33.59-16.52,24.21,25.38,78.61,25.38,78.61,25.38h0s54.35,0,78.58-25.36c7.22,1.93,18.97,6.39,34.1,16.66.86.58,1.84.86,2.8.86,1.6,0,3.17-.77,4.14-2.19,1.55-2.29.96-5.39-1.33-6.95-13.83-9.38-25.17-14.33-33.34-16.94,1.12-2.01,2.09-4.13,2.86-6.39,9.73,1.58,24.44,4.62,40,10.17.56.2,1.12.29,1.68.29,2.05,0,3.98-1.27,4.71-3.32.93-2.6-.43-5.46-3.03-6.39ZM164.33,205.94c-.45,1.47-1.9,2.39-3.44,2.39-15.62-.03-23.2-5.78-26.89-11.32h0c-3.7,5.56-11.31,11.32-27,11.32-1.93,0-3.5-1.57-3.5-3.5s1.57-3.5,3.5-3.5c22.94,0,23.49-13.94,23.5-14.53,0-.14.03-.28.05-.42l-6.28-6.28c-3.05-3.05-.89-8.27,3.43-8.27h6.3s6.3,0,6.3,0c4.32,0,6.48,5.22,3.43,8.27l-6.28,6.28c.02.14.05.27.05.42.01.59.56,14.53,23.5,14.53,2.29,0,4.07,2.2,3.33,4.61ZM148,141.33c-4.14-7.44-4.5-18-14-17.5-9.5-.5-9.86,10.06-14,17.5-5,9-12,37-48.5,36.5-12.1,0-20.98-4.45-27.5-11-18-18.06-18-52-18-52,0,0,0-9,9-9-.1-.1,4.13-.16,10.89-.2,25.72-.12,88.11.2,88.11.2,0,0,62.4-.31,88.11-.2,6.76.03,10.99.09,10.89.2,9,0,9,9,9,9,0,0,0,33.95-18,52-6.52,6.54-15.4,11-27.5,11-36.5.5-43.5-27.5-48.5-36.5Z"
      id="path8" style="fill:#ffffff;fill-opacity:1" />
   <path class="cls-1" d="M206,111.83h-30l-15,40s7,15,25,19c.02,0,20-59,20-59Z" id="path10"
      style="fill:#ffffff;fill-opacity:1" />
</svg>