<?xml version="1.0" encoding="UTF-8"?>
<svg id="Layer_1" data-name="Layer 1" xmlns="http://www.w3.org/2000/svg" version="1.1"
  xmlns:xlink="http://www.w3.org/1999/xlink" viewBox="0 0 295 295">
  <defs>
    <style>
      .cls-1 {
        fill: url(#linear-gradient);
      }

      .cls-1,
      .cls-2,
      .cls-3 {
        stroke-width: 0px;
      }

      .cls-2 {
        fill: url(#linear-gradient-2);
      }

      .cls-3 {
        fill: url(#linear-gradient-3);
      }
    </style>
    <linearGradient id="linear-gradient" x1="3.2" y1="85.6" x2="211.3" y2="310.4" gradientUnits="userSpaceOnUse">
      <stop offset="0" stop-color="#fff" />
      <stop offset=".2" stop-color="#f6f6f6" />
      <stop offset=".5" stop-color="#e0dfdf" />
      <stop offset=".9" stop-color="#bcbaba" />
      <stop offset="1" stop-color="#b3b1b1" />
    </linearGradient>
    <linearGradient id="linear-gradient-2" x1="49" y1="43.2" x2="257.1" y2="268" xlink:href="#linear-gradient" />
    <linearGradient id="linear-gradient-3" x1="72.6" y1="21.3" x2="280.8" y2="246.1" xlink:href="#linear-gradient" />
  </defs>
  <path class="cls-1" d="M50.7,189.4c13.2,16.5,28.5,13.2,28.5,13.2l20.9-64.8h-31.8s-17.9,51.1-17.6,51.6Z" />
  <path class="cls-2"
    d="M291.4,236c-17.7-6.3-34.3-9.8-45.4-11.6.1-1.4.2-2.8.2-4.3v-2c8.8-.8,22.9-1.2,40.4,1.1,3,.4,5.8-1.7,6.2-4.7.4-3-1.7-5.8-4.7-6.2-12.3-1.6-23.1-1.9-31.7-1.7,6.6-6.9,11.9-15.7,15.7-26.4,2-5.5,3.4-11.1,4.5-16.1.5,0,1,.1,1.5.1h6.6c5.4,0,9.9-4.4,9.9-9.9v-9.9c0-5.4-4.4-9.9-9.9-9.9h-6.4c-2.4-8.4-9.3-15.7-20.3-16.4,5.8-12.9,14-42.9,10.6-95.2-.3-5.1-5.1-8.8-10.1-7.6-37.9,8.7-65.5,31.6-74.6,41.7-10.4-3-22.4-4.7-36.4-4.8-14,.1-26,1.9-36.4,4.8-9.2-10.1-37-33.2-75.1-41.8-5-1.1-9.4,3.6-9.8,8.7-3.2,51.7,4.9,81.4,10.7,94.2-11,.7-17.9,8-20.3,16.4h-6.4c-5.4,0-9.9,4.4-9.9,9.9v9.9c0,5.4,4.4,9.9,9.9,9.9h6.6c.5,0,1,0,1.5-.1,1,5.1,2.5,10.6,4.5,16.1,3.8,10.6,9.1,19.4,15.6,26.2-8.5-.2-19,.2-31,1.7-3,.4-5.1,3.1-4.7,6.2.4,3,3.2,5.1,6.2,4.7,17.2-2.2,31.1-1.9,39.9-1.1v2.3c0,1.4,0,2.8.2,4.2-11.1,1.8-27.4,5.3-44.8,11.5-2.9,1-4.3,4.2-3.3,7,.8,2.2,2.9,3.6,5.2,3.6s1.2-.1,1.8-.3c16.8-6,32.7-9.3,43.3-11.1.8,2.5,1.9,4.9,3.2,7.1-8.9,2.9-21.2,8.3-36.1,18.4-2.5,1.7-3.2,5.1-1.5,7.6,1.1,1.6,2.8,2.4,4.5,2.4,1.1,0,2.1-.3,3.1-.9,16.2-11,28.9-15.9,36.9-18.1,26.6,27.9,86.3,27.9,86.3,27.9h0s59.7,0,86.3-27.8c7.9,2.1,20.8,7,37.4,18.3.9.6,2,.9,3.1.9,1.8,0,3.5-.8,4.5-2.4,1.7-2.5,1-5.9-1.5-7.6-15.2-10.3-27.6-15.7-36.6-18.6,1.2-2.2,2.3-4.5,3.1-7,10.7,1.7,26.8,5.1,43.9,11.2.6.2,1.2.3,1.8.3,2.3,0,4.4-1.4,5.2-3.6,1-2.9-.5-6-3.3-7ZM180.6,241.1c-.5,1.6-2.1,2.6-3.8,2.6-17.1,0-25.5-6.3-29.5-12.4h0c-4.1,6.1-12.4,12.4-29.6,12.4s-3.8-1.7-3.8-3.8,1.7-3.8,3.8-3.8c25.2,0,25.8-15.3,25.8-16,0-.2,0-.3,0-.5l-6.9-6.9c-3.4-3.4-1-9.1,3.8-9.1h6.9s6.9,0,6.9,0c4.7,0,7.1,5.7,3.8,9.1l-6.9,6.9c0,.2,0,.3,0,.5,0,.7.6,16,25.8,16s4.5,2.4,3.7,5.1ZM216,210.2c-40.1.5-47.8-30.2-53.2-40.1-4.5-8.2-4.9-19.8-15.4-19.2-10.4-.5-10.8,11-15.4,19.2-5.5,9.9-13.2,40.6-53.2,40.1-13.3,0-23-4.9-30.2-12.1-19.8-19.8-19.8-57.1-19.8-57.1,0,0,0-9.9,9.9-9.9-.1-.1,4.5-.2,12-.2,28.2-.1,96.7.2,96.7.2,0,0,68.5-.3,96.7-.2,7.4,0,12.1.1,12,.2,9.9,0,9.9,9.9,9.9,9.9,0,0,0,37.3-19.8,57.1-7.2,7.2-16.9,12.1-30.2,12.1Z" />
  <path class="cls-3" d="M177,181.7s7.7,16.5,27.4,20.9c0,0,22-64.8,22-64.8h-32.9l-16.5,43.9Z" />
</svg>